<?xml version="1.0" standalone="no"?>
<!DOCTYPE svg PUBLIC "-//W3C//DTD SVG 20010904//EN"
 "http://www.w3.org/TR/2001/REC-SVG-20010904/DTD/svg10.dtd">
<svg version="1.0" xmlns="http://www.w3.org/2000/svg"
 width="640.000000pt" height="1280.000000pt" viewBox="0 0 640.000000 1280.000000"
 preserveAspectRatio="xMidYMid meet">
<metadata>
Created by potrace 1.15, written by Peter Selinger 2001-2017
</metadata>
<g transform="translate(0.000000,1280.000000) scale(0.100000,-0.100000)"
fill="#000000" stroke="none">
<path d="M5515 12796 c-5 -3 -26 -7 -46 -10 -37 -7 -37 -7 -107 -169 -38 -89
-183 -423 -321 -741 -138 -319 -250 -583 -249 -588 3 -8 433 -198 448 -198 4
0 43 84 87 188 44 103 190 438 323 745 l242 557 -27 46 c-67 113 -147 165
-268 170 -40 2 -76 2 -82 0z"/>
<path d="M4371 11358 c-5 -13 -25 -59 -44 -103 -19 -44 -93 -215 -165 -380
-71 -165 -212 -489 -312 -720 -100 -231 -240 -553 -310 -715 -70 -162 -209
-482 -308 -710 -244 -564 -737 -1700 -1111 -2562 -170 -392 -472 -1089 -671
-1548 -453 -1044 -550 -1269 -550 -1273 0 -2 37 -20 83 -40 58 -26 924 -401
1112 -483 6 -2 49 87 97 198 48 112 187 433 308 713 122 281 346 796 497 1145
152 349 437 1009 635 1465 198 457 470 1083 604 1393 134 309 355 817 490
1130 649 1496 864 1993 864 1997 0 3 -4 5 -9 5 -5 0 -273 115 -596 255 -322
140 -590 255 -596 255 -5 0 -13 -10 -18 -22z"/>
<path d="M5578 10682 c-34 -81 -63 -151 -63 -156 0 -12 238 -115 247 -107 9 8
128 281 128 293 0 9 -31 24 -177 86 l-71 30 -64 -146z"/>
<path d="M5935 10627 c-36 -83 -678 -1562 -1026 -2366 -154 -355 -278 -649
-276 -654 3 -9 194 -96 213 -97 6 0 24 28 39 63 50 114 1106 2548 1206 2781
55 126 96 233 92 237 -5 4 -46 23 -93 44 -141 61 -124 62 -155 -8z"/>
<path d="M4675 8160 c-104 -49 -194 -91 -199 -92 -8 -4 110 -395 124 -411 3
-4 36 61 73 145 36 84 95 219 131 301 36 81 64 147 63 147 -1 -1 -87 -41 -192
-90z"/>
<path d="M766 2908 c-305 -1072 -445 -1572 -441 -1576 2 -2 167 -75 367 -162
270 -117 366 -155 374 -146 16 15 1017 1746 1013 1750 -2 1 -47 21 -99 43 -52
23 -319 138 -593 257 -274 119 -501 216 -505 216 -4 0 -56 -172 -116 -382z"/>
<path d="M421 1133 c-15 -100 -99 -548 -166 -887 -24 -126 -44 -231 -42 -232
2 -2 581 898 634 986 l22 36 -214 92 c-117 51 -215 92 -217 92 -2 0 -10 -39
-17 -87z"/>
</g>
</svg>
